<svg width="71" height="72" viewBox="0 0 71 72" fill="none" xmlns="http://www.w3.org/2000/svg">
<path d="M18.9594 36.7533L1.77451 54.8671C1.40145 55.2603 1.40959 55.8792 1.79287 56.2625L14.8787 69.3483C15.2763 69.7459 15.9235 69.7376 16.3108 69.3299L33.9062 50.8084C34.2901 50.4043 34.9305 50.3921 35.3295 50.7814L54.3971 69.384C54.789 69.7663 55.4154 69.7624 55.8026 69.3753L68.897 56.2808C69.2875 55.8903 69.2875 55.2571 68.897 54.8666L50.8023 36.7719C50.4153 36.3849 50.4113 35.7586 50.7934 35.3667L68.9264 16.7688C69.3039 16.3817 69.3052 15.7645 68.9294 15.3757L55.811 1.80501C55.4226 1.40316 54.7801 1.39771 54.3849 1.79292L35.3112 20.8666C34.9207 21.2571 34.2875 21.2571 33.897 20.8666L16.2864 3.25603C15.9057 2.87533 15.292 2.86438 14.8979 3.23125L1.83365 15.3945C1.43036 15.77 1.4068 16.401 1.78097 16.8055L18.968 35.386C19.3258 35.7729 19.3221 36.371 18.9594 36.7533Z" fill="#C30000" stroke="black" stroke-width="3"/>
</svg>
